<svg width="128" height="128" xmlns="http://www.w3.org/2000/svg">

 <title/>
 <g>
  <title>background</title>
  <rect fill="none" id="canvas_background" height="402" width="582" y="-1" x="-1"/>
 </g>
 <g>
  <title>Layer 1</title>
  <path fill="#ffc960" id="svg_1" d="m59,98a8,8 0 1 1 5,-14.24l0,-34.76l38,0a41.5,41.5 0 1 0 -38.5,57l0.5,0l0,-9.76a8,8 0 0 1 -5,1.76zm6,-66a5,5 0 1 1 -5,5a5,5 0 0 1 5,-5zm-22,41a10,10 0 1 1 10,-10a10,10 0 0 1 -10,10z" class="cls-1"/>
  <line stroke="#ffffff" stroke-width="3px" stroke-linejoin="round" stroke-linecap="round" fill="none" id="svg_2" y2="22.66" y1="13.8" x2="71.04" x1="72.65" class="cls-2"/>
  <path fill="#ffffff" id="svg_3" d="m76.37,7.36a2.5,2.5 0 1 1 -2,-2.9a2.5,2.5 0 0 1 2,2.9z" class="cls-3"/>
  <line stroke="#ffffff" stroke-width="3px" stroke-linejoin="round" stroke-linecap="round" fill="none" id="svg_4" y2="106.77" y1="115.63" x2="55.73" x1="54.12" class="cls-2"/>
  <path fill="#ffffff" id="svg_5" d="m55.33,123a2.5,2.5 0 1 0 -2.91,2a2.5,2.5 0 0 0 2.91,-2z" class="cls-3"/>
  <rect stroke="#ffffff" stroke-width="3px" stroke-linejoin="round" stroke-linecap="round" fill="none" id="svg_6" y="49.5" x="64.5" width="58" height="74" class="cls-2"/>
  <rect fill="#79c651" id="svg_7" y="107" x="74" width="9" height="7" class="cls-4"/>
  <rect fill="#79c651" id="svg_8" y="97" x="89" width="9" height="17" class="cls-4"/>
  <rect fill="#79c651" id="svg_9" y="101" x="104" width="9" height="13" class="cls-4"/>
  <path stroke="#ffc960" stroke-width="3px" stroke-linejoin="round" stroke-linecap="round" fill="none" id="svg_10" d="m99,61.51a12.46,12.46 0 0 1 6.41,19.49" class="cls-5"/>
  <path fill="#79c651" id="svg_11" d="m95,59.38a14.09,14.09 0 1 0 8.58,25.26l-8.58,-11.17l0,-14.09z" class="cls-4"/>
  <circle stroke="#ffffff" stroke-width="3px" stroke-linejoin="round" stroke-linecap="round" fill="none" id="svg_12" r="10.5" cy="63" cx="43.182437" class="cls-2"/>
  <path stroke="#ffffff" stroke-width="3px" stroke-linejoin="round" stroke-linecap="round" fill="none" id="svg_13" d="m58.75,98a8,8 0 0 1 0,-16" class="cls-2"/>
  <circle stroke="#ffffff" stroke-width="3px" stroke-linejoin="round" stroke-linecap="round" fill="none" id="svg_14" r="4.5" cy="37" cx="65" class="cls-2"/>
  <path stroke="#ffffff" stroke-width="NaN" stroke-linejoin="round" stroke-linecap="round" fill="none" id="svg_15" d="m59.620882,106.31a42,42 0 1 1 43,-57.61" class="cls-2"/>
  <line stroke="#ffffff" stroke-width="3px" stroke-linejoin="round" stroke-linecap="round" fill="none" id="svg_16" y2="22.93" y1="14.13" x2="53.36" x1="51.46" class="cls-2"/>
  <path fill="#ffffff" id="svg_17" d="m52.43,6.76a2.5,2.5 0 1 1 -3,-1.91a2.5,2.5 0 0 1 3,1.91z" class="cls-3"/>
  <line stroke="#ffffff" stroke-width="3px" stroke-linejoin="round" stroke-linecap="round" fill="none" id="svg_18" y2="29.96" y1="22.56" x2="37.76" x1="32.64" class="cls-2"/>
  <path fill="#ffffff" id="svg_19" d="m30.42,15.68a2.5,2.5 0 1 1 -3.48,-0.63a2.51,2.51 0 0 1 3.48,0.63z" class="cls-3"/>
  <line stroke="#ffffff" stroke-width="3px" stroke-linejoin="round" stroke-linecap="round" fill="none" id="svg_20" y2="58.26" y1="56.65" x2="21.04" x1="12.18" class="cls-2"/>
  <path fill="#ffffff" id="svg_21" d="m5.74,52.94a2.5,2.5 0 1 1 -2.9,2a2.5,2.5 0 0 1 2.9,-2z" class="cls-3"/>
  <line stroke="#ffffff" stroke-width="3px" stroke-linejoin="round" stroke-linecap="round" fill="none" id="svg_22" y2="43.52" y1="38.65" x2="26.35" x1="18.78" class="cls-2"/>
  <path fill="#ffffff" id="svg_23" d="m14.33,33.53a2.5,2.5 0 1 1 -3.45,0.75a2.51,2.51 0 0 1 3.45,-0.75z" class="cls-3"/>
  <line stroke="#ffffff" stroke-width="3px" stroke-linejoin="round" stroke-linecap="round" fill="none" id="svg_24" y2="28.7" y1="21.13" x2="86.06" x1="90.94" class="cls-2"/>
  <circle fill="#252d32" id="svg_25" transform="rotate(-0.8500000238418579 -0.2099999934435142,1.3999999761581419) " r="0" cy="16.19" cx="94.63" class="cls-3"/>
  <line stroke="#ffffff" stroke-width="3px" stroke-linejoin="round" stroke-linecap="round" fill="none" id="svg_26" y2="40.78" y1="35.66" x2="98.18" x1="105.59" class="cls-2"/>
  <path fill="#ffffff" id="svg_27" d="m110.58,30.09a2.5,2.5 0 1 0 3.48,0.63a2.5,2.5 0 0 0 -3.48,-0.63z" class="cls-3"/>
  <line stroke="#ffffff" stroke-width="3px" stroke-linejoin="round" stroke-linecap="round" fill="none" id="svg_28" y2="101.11" y1="108.67" x2="40.13" x1="35.26" class="cls-2"/>
  <circle fill="#252d32" id="svg_29" transform="rotate(-0.15000000596046448 -0.28999999165534707,0.07999999821187098) " r="0" cy="114.23" cx="31.74" class="cls-3"/>
  <line stroke="#ffffff" stroke-width="3px" stroke-linejoin="round" stroke-linecap="round" fill="none" id="svg_30" y2="90.03" y1="95.15" x2="29.01" x1="21.61" class="cls-2"/>
  <path fill="#ffffff" id="svg_31" d="m17.1,100.83a2.5,2.5 0 1 0 -3.48,-0.63a2.48,2.48 0 0 0 3.48,0.63z" class="cls-3"/>
  <line stroke="#ffffff" stroke-width="3px" stroke-linejoin="round" stroke-linecap="round" fill="none" id="svg_32" y2="74.25" y1="76.15" x2="21.75" x1="12.96" class="cls-2"/>
  <path fill="#ffffff" id="svg_33" d="m7,79.4a2.5,2.5 0 1 0 -3,-1.92a2.52,2.52 0 0 0 3,1.92z" class="cls-3"/>
 </g>
</svg>