<svg xmlns="http://www.w3.org/2000/svg" width="128" height="128"><title/><g><title>background</title><rect id="canvas_background" width="582" height="402" x="-1" y="-1" fill="none"/></g><g><title>Layer 1</title><path id="svg_1" fill="#ffc960" d="m59,98a8,8 0 1 1 5,-14.24l0,-34.76l38,0a41.5,41.5 0 1 0 -38.5,57l0.5,0l0,-9.76a8,8 0 0 1 -5,1.76zm6,-66a5,5 0 1 1 -5,5a5,5 0 0 1 5,-5zm-22,41a10,10 0 1 1 10,-10a10,10 0 0 1 -10,10z" class="cls-1"/><line id="svg_2" x1="72.65" x2="71.04" y1="13.8" y2="22.66" fill="none" stroke="#fff" stroke-linecap="round" stroke-linejoin="round" stroke-width="3" class="cls-2"/><path id="svg_3" fill="#fff" d="m76.37,7.36a2.5,2.5 0 1 1 -2,-2.9a2.5,2.5 0 0 1 2,2.9z" class="cls-3"/><line id="svg_4" x1="54.12" x2="55.73" y1="115.63" y2="106.77" fill="none" stroke="#fff" stroke-linecap="round" stroke-linejoin="round" stroke-width="3" class="cls-2"/><path id="svg_5" fill="#fff" d="m55.33,123a2.5,2.5 0 1 0 -2.91,2a2.5,2.5 0 0 0 2.91,-2z" class="cls-3"/><rect id="svg_6" width="58" height="74" x="64.5" y="49.5" fill="none" stroke="#fff" stroke-linecap="round" stroke-linejoin="round" stroke-width="3" class="cls-2"/><rect id="svg_7" width="9" height="7" x="74" y="107" fill="#79c651" class="cls-4"/><rect id="svg_8" width="9" height="17" x="89" y="97" fill="#79c651" class="cls-4"/><rect id="svg_9" width="9" height="13" x="104" y="101" fill="#79c651" class="cls-4"/><path id="svg_10" fill="none" stroke="#ffc960" stroke-linecap="round" stroke-linejoin="round" stroke-width="3" d="m99,61.51a12.46,12.46 0 0 1 6.41,19.49" class="cls-5"/><path id="svg_11" fill="#79c651" d="m95,59.38a14.09,14.09 0 1 0 8.58,25.26l-8.58,-11.17l0,-14.09z" class="cls-4"/><circle id="svg_12" cx="43.182" cy="63" r="10.5" fill="none" stroke="#fff" stroke-linecap="round" stroke-linejoin="round" stroke-width="3" class="cls-2"/><path id="svg_13" fill="none" stroke="#fff" stroke-linecap="round" stroke-linejoin="round" stroke-width="3" d="m58.75,98a8,8 0 0 1 0,-16" class="cls-2"/><circle id="svg_14" cx="65" cy="37" r="4.5" fill="none" stroke="#fff" stroke-linecap="round" stroke-linejoin="round" stroke-width="3" class="cls-2"/><path id="svg_15" fill="none" stroke="#fff" stroke-linecap="round" stroke-linejoin="round" stroke-width="NaN" d="m59.620882,106.31a42,42 0 1 1 43,-57.61" class="cls-2"/><line id="svg_16" x1="51.46" x2="53.36" y1="14.13" y2="22.93" fill="none" stroke="#fff" stroke-linecap="round" stroke-linejoin="round" stroke-width="3" class="cls-2"/><path id="svg_17" fill="#fff" d="m52.43,6.76a2.5,2.5 0 1 1 -3,-1.91a2.5,2.5 0 0 1 3,1.91z" class="cls-3"/><line id="svg_18" x1="32.64" x2="37.76" y1="22.56" y2="29.96" fill="none" stroke="#fff" stroke-linecap="round" stroke-linejoin="round" stroke-width="3" class="cls-2"/><path id="svg_19" fill="#fff" d="m30.42,15.68a2.5,2.5 0 1 1 -3.48,-0.63a2.51,2.51 0 0 1 3.48,0.63z" class="cls-3"/><line id="svg_20" x1="12.18" x2="21.04" y1="56.65" y2="58.26" fill="none" stroke="#fff" stroke-linecap="round" stroke-linejoin="round" stroke-width="3" class="cls-2"/><path id="svg_21" fill="#fff" d="m5.74,52.94a2.5,2.5 0 1 1 -2.9,2a2.5,2.5 0 0 1 2.9,-2z" class="cls-3"/><line id="svg_22" x1="18.78" x2="26.35" y1="38.65" y2="43.52" fill="none" stroke="#fff" stroke-linecap="round" stroke-linejoin="round" stroke-width="3" class="cls-2"/><path id="svg_23" fill="#fff" d="m14.33,33.53a2.5,2.5 0 1 1 -3.45,0.75a2.51,2.51 0 0 1 3.45,-0.75z" class="cls-3"/><line id="svg_24" x1="90.94" x2="86.06" y1="21.13" y2="28.7" fill="none" stroke="#fff" stroke-linecap="round" stroke-linejoin="round" stroke-width="3" class="cls-2"/><circle id="svg_25" cx="94.63" cy="16.19" r="0" fill="#252d32" class="cls-3" transform="rotate(-0.8500000238418579 -0.2099999934435142,1.3999999761581419)"/><line id="svg_26" x1="105.59" x2="98.18" y1="35.66" y2="40.78" fill="none" stroke="#fff" stroke-linecap="round" stroke-linejoin="round" stroke-width="3" class="cls-2"/><path id="svg_27" fill="#fff" d="m110.58,30.09a2.5,2.5 0 1 0 3.48,0.63a2.5,2.5 0 0 0 -3.48,-0.63z" class="cls-3"/><line id="svg_28" x1="35.26" x2="40.13" y1="108.67" y2="101.11" fill="none" stroke="#fff" stroke-linecap="round" stroke-linejoin="round" stroke-width="3" class="cls-2"/><circle id="svg_29" cx="31.74" cy="114.23" r="0" fill="#252d32" class="cls-3" transform="rotate(-0.15000000596046448 -0.28999999165534707,0.07999999821187098)"/><line id="svg_30" x1="21.61" x2="29.01" y1="95.15" y2="90.03" fill="none" stroke="#fff" stroke-linecap="round" stroke-linejoin="round" stroke-width="3" class="cls-2"/><path id="svg_31" fill="#fff" d="m17.1,100.83a2.5,2.5 0 1 0 -3.48,-0.63a2.48,2.48 0 0 0 3.48,0.63z" class="cls-3"/><line id="svg_32" x1="12.96" x2="21.75" y1="76.15" y2="74.25" fill="none" stroke="#fff" stroke-linecap="round" stroke-linejoin="round" stroke-width="3" class="cls-2"/><path id="svg_33" fill="#fff" d="m7,79.4a2.5,2.5 0 1 0 -3,-1.92a2.52,2.52 0 0 0 3,1.92z" class="cls-3"/></g></svg>